<svg width="24" height="24" viewBox="0 0 24 24" fill="none" xmlns="http://www.w3.org/2000/svg">
  <path d="M8.2 4.2H15.8V9.4C15.8 12 14.1 14.2 12 14.2C9.9 14.2 8.2 12 8.2 9.4V4.2Z" fill="white" stroke="#2451F5" stroke-width="2.2" stroke-linejoin="round"/>
  <path d="M8.2 6.1H5.1C5.1 9.1 6.5 11.1 8.6 11.5" stroke="#2451F5" stroke-width="2.1" stroke-linecap="round" stroke-linejoin="round"/>
  <path d="M15.8 6.1H18.9C18.9 9.1 17.5 11.1 15.4 11.5" stroke="#2451F5" stroke-width="2.1" stroke-linecap="round" stroke-linejoin="round"/>
  <path d="M12 14.2V17" stroke="#2451F5" stroke-width="2.2" stroke-linecap="round"/>
  <path d="M9.8 17H14.2L15.3 20H8.7L9.8 17Z" fill="white" stroke="#2451F5" stroke-width="2.1" stroke-linejoin="round"/>
  <path d="M7.6 20H16.4" stroke="#2451F5" stroke-width="2.2" stroke-linecap="round"/>
  <path d="M12 6.8L12.6 8L14 8.2L13 9.1L13.2 10.4L12 9.8L10.8 10.4L11 9.1L10 8.2L11.4 8Z" fill="#CAFF3D" stroke="#2451F5" stroke-width="0.7" stroke-linejoin="round"/>
</svg>
