<svg width="24" height="24" viewBox="0 0 24 24" fill="none" xmlns="http://www.w3.org/2000/svg">
  <path d="M4.5 7.2C4.5 6.1 5.4 5.2 6.5 5.2H17.5C18.6 5.2 19.5 6.1 19.5 7.2V9.1C18.5 9.4 17.8 10.3 17.8 11.5C17.8 12.7 18.5 13.6 19.5 13.9V16.8C19.5 17.9 18.6 18.8 17.5 18.8H6.5C5.4 18.8 4.5 17.9 4.5 16.8V13.9C5.5 13.6 6.2 12.7 6.2 11.5C6.2 10.3 5.5 9.4 4.5 9.1V7.2Z" fill="white" stroke="#2451F5" stroke-width="2.2" stroke-linejoin="round"></path>
  <path d="M8.2 9.5H13.8" stroke="#2451F5" stroke-width="1.8" stroke-linecap="round"></path>
  <path d="M8.2 13H11.4" stroke="#2451F5" stroke-width="1.8" stroke-linecap="round"></path>
  <path d="M13.5 15.6L18.2 10.9L19.8 12.5L15.1 17.2L12.8 17.8L13.5 15.6Z" fill="#CAFF3D" stroke="#111111" stroke-width="1.3" stroke-linejoin="round"></path>
</svg>